<svg xmlns="http://www.w3.org/2000/svg" viewBox="0 0 100 130">
  <!-- Male Cat Character -->
  <g transform="translate(50, 65)">
    <!-- Body -->
    <circle cx="0" cy="0" r="45" fill="#FFB846"/>
    
    <!-- Cat Ears -->
    <path d="M-25,-35 L-35,-60 L-15,-50 Z" fill="#FFB846"/>
    <path d="M25,-35 L35,-60 L15,-50 Z" fill="#FFB846"/>
    <path d="M-28,-41 L-33,-55 L-20,-48 Z" fill="#FF8C3A"/>
    <path d="M28,-41 L33,-55 L20,-48 Z" fill="#FF8C3A"/>
    
    <!-- Face -->
    <circle cx="-15" cy="-10" r="5" fill="white"/> <!-- Left eye area -->
    <circle cx="15" cy="-10" r="5" fill="white"/> <!-- Right eye area -->
    <circle cx="-15" cy="-10" r="2.5" fill="#333"/> <!-- Left pupil -->
    <circle cx="15" cy="-10" r="2.5" fill="#333"/> <!-- Right pupil -->
    
    <!-- Nose and Mouth -->
    <path d="M0,5 L-5,0 L5,0 Z" fill="#FF8C3A"/>
    <path d="M0,5 C5,10 10,8 12,5" fill="none" stroke="#333" stroke-width="1.5" stroke-linecap="round"/>
    <path d="M0,5 C-5,10 -10,8 -12,5" fill="none" stroke="#333" stroke-width="1.5" stroke-linecap="round"/>
    
    <!-- Whiskers -->
    <line x1="-8" y1="3" x2="-28" y2="0" stroke="#333" stroke-width="1" stroke-linecap="round"/>
    <line x1="-8" y1="5" x2="-28" y2="7" stroke="#333" stroke-width="1" stroke-linecap="round"/>
    <line x1="8" y1="3" x2="28" y2="0" stroke="#333" stroke-width="1" stroke-linecap="round"/>
    <line x1="8" y1="5" x2="28" y2="7" stroke="#333" stroke-width="1" stroke-linecap="round"/>
    
    <!-- Cat Paws -->
    <circle cx="-20" cy="40" r="12" fill="#FFB846"/>
    <circle cx="20" cy="40" r="12" fill="#FFB846"/>
    
    <!-- Shirt/Outfit -->
    <path d="M-30,15 C-30,40 30,40 30,15" fill="#5DADEC"/>
    <rect x="-5" y="15" width="10" height="15" fill="white"/>
  </g>
</svg>
