<?xml version="1.0" standalone="no"?>
<!DOCTYPE svg PUBLIC "-//W3C//DTD SVG 20010904//EN"
 "http://www.w3.org/TR/2001/REC-SVG-20010904/DTD/svg10.dtd">
<svg version="1.0" xmlns="http://www.w3.org/2000/svg"
 width="1024.000000pt" height="1024.000000pt" viewBox="0 0 1024.000000 1024.000000"
 preserveAspectRatio="xMidYMid meet">

<g transform="translate(0.000000,1024.000000) scale(0.100000,-0.100000)"
fill="#000000" stroke="none">
<path d="M0 5120 l0 -5120 5120 0 5120 0 0 5120 0 5120 -5120 0 -5120 0 0
-5120z m2785 991 c60 -17 76 -27 117 -70 35 -38 49 -63 57 -102 8 -34 11 -244
10 -637 -1 -323 -5 -571 -9 -552 -5 19 -9 294 -10 610 -1 557 -1 576 -21 617
-23 48 -81 103 -107 103 -10 0 -23 5 -30 12 -8 8 -97 14 -289 20 -153 4 -282
10 -288 12 -5 3 105 5 245 5 223 1 264 -1 325 -18z m-509 -397 c37 -8 85 -24
106 -35 55 -28 117 -95 147 -159 22 -47 26 -68 26 -150 0 -83 -4 -102 -28
-153 -32 -68 -102 -146 -161 -181 -67 -39 -121 -48 -294 -50 l-162 -1 -3 -146
c-1 -106 -6 -150 -16 -162 -11 -14 -32 -17 -115 -17 -105 1 -123 6 -144 47 -9
16 -12 152 -12 486 0 439 1 466 19 488 34 42 71 47 328 48 186 1 257 -3 309
-15z m1446 -81 c63 -29 128 -91 158 -150 21 -41 25 -62 25 -138 0 -106 -21
-158 -88 -225 -72 -73 -150 -100 -289 -100 l-88 0 0 -145 0 -146 -77 3 -78 3
-3 463 -2 464 197 -4 c177 -3 203 -6 245 -25z m1340 -155 c0 -98 2 -178 5
-178 3 0 17 8 31 19 111 79 271 64 361 -34 63 -68 72 -114 69 -351 l-3 -199
-70 0 -70 0 -5 195 c-4 158 -8 201 -22 226 -23 43 -78 67 -137 62 -72 -7 -103
-27 -131 -83 -24 -47 -25 -60 -27 -225 l-2 -175 -68 0 -68 0 -3 463 -2 463 71
-3 71 -3 0 -177z m1416 149 c31 -29 30 -90 -3 -122 -51 -52 -145 -16 -145 55
0 43 16 69 53 85 37 16 63 11 95 -18z m2052 -154 l0 -186 23 21 c36 34 108 62
162 62 114 0 197 -48 244 -141 l31 -62 0 -219 0 -219 -72 3 -73 3 -5 200 c-4
172 -8 205 -23 229 -53 80 -209 70 -262 -16 -17 -29 -20 -55 -23 -225 l-4
-193 -69 0 -69 0 0 465 0 465 70 0 70 0 0 -187z m-3723 151 c22 -22 25 -32 20
-67 -15 -108 -167 -100 -167 9 0 79 90 115 147 58z m3283 -190 l0 -84 110 0
111 0 -3 -67 -3 -68 -107 -3 -108 -3 0 -145 c0 -80 4 -154 10 -164 14 -27 71
-42 142 -38 l63 3 -2 -54 c-2 -72 -14 -81 -119 -81 -107 0 -176 32 -214 100
-23 42 -25 56 -28 212 l-4 167 -46 3 -47 3 -3 43 c-4 53 8 69 59 77 l39 7 0
71 c0 40 4 79 10 87 9 14 102 30 128 22 8 -3 12 -30 12 -88z m-3720 -83 c28
-11 67 -31 85 -46 41 -30 93 -104 105 -147 5 -17 10 -119 10 -227 l2 -196 -66
-3 -66 -3 0 36 c0 38 -10 44 -31 19 -32 -39 -92 -59 -179 -59 -76 0 -91 3
-139 30 -166 92 -213 322 -98 482 81 113 247 163 377 114z m1674 -2 c69 -25
144 -91 176 -155 24 -47 25 -58 28 -257 l3 -208 -68 3 -68 3 3 37 4 38 -52
-35 c-120 -81 -254 -73 -359 21 -73 65 -104 137 -104 240 -1 72 3 89 32 148
74 151 250 223 405 165z m936 5 c101 -22 114 -32 105 -82 -3 -22 -12 -48 -20
-58 -12 -18 -17 -18 -110 5 -104 25 -169 24 -212 -4 -54 -36 -19 -60 135 -99
121 -29 177 -58 210 -106 32 -48 29 -148 -7 -199 -30 -41 -112 -80 -185 -88
-88 -9 -278 32 -290 63 -3 9 1 41 10 71 12 43 20 54 32 49 184 -60 299 -64
334 -12 25 37 -10 60 -144 93 -156 38 -216 76 -238 150 -25 81 41 191 131 220
51 16 164 15 249 -3z m-2160 -309 l0 -316 -72 3 -73 3 -3 300 c-1 165 0 305 3
312 3 9 27 13 75 13 l70 0 0 -315z m1675 0 l0 -310 -73 0 -73 0 0 305 c0 168
0 309 1 313 0 4 33 7 73 5 l72 -3 0 -310z m835 110 c5 -218 9 -235 67 -272 38
-25 137 -24 181 2 62 37 72 77 72 289 l0 187 68 -3 67 -3 0 -225 c0 -214 -1
-227 -22 -267 -104 -193 -468 -183 -554 15 -17 38 -19 70 -19 263 l0 220 68
-3 67 -3 5 -200z m-4375 -675 c-4 -23 -9 -39 -11 -37 -3 2 -2 23 2 46 4 23 9
40 11 37 3 -3 2 -23 -2 -46z m-51 -91 c-16 -17 -38 -35 -48 -41 -11 -6 0 9 25
33 49 49 69 56 23 8z"/>
<path d="M1907 5353 l2 -148 143 0 c158 0 188 9 222 65 24 42 21 130 -6 165
-40 51 -88 65 -233 65 l-130 0 2 -147z"/>
<path d="M3445 5498 c-3 -7 -4 -83 -3 -168 l3 -155 64 -3 c160 -8 256 75 236
204 -13 89 -68 125 -202 132 -74 4 -94 2 -98 -10z"/>
<path d="M4215 5224 c-71 -17 -112 -59 -136 -141 -35 -122 81 -247 207 -224
57 11 81 27 111 74 22 34 27 54 27 108 1 55 -3 72 -26 106 -36 55 -122 91
-183 77z"/>
<path d="M5870 5219 c-161 -47 -161 -305 0 -353 90 -27 167 5 208 84 47 93 15
212 -68 255 -37 19 -100 25 -140 14z"/>
</g>
</svg>
